<svg class="logo mb-8" xmlns="http://www.w3.org/2000/svg" viewBox="0 0 71.67 71.67"><path d="M60.73,0H45.4l1.82,5H60.73a5.94,5.94,0,0,1,5.94,5.94V37L33.57,49.06l1.57,4.31,1.3-.47L69.75,40.78A2.93,2.93,0,0,0,71.67,38V10.94A10.94,10.94,0,0,0,60.73,0Z"></path><path d="M66.67,60.73a5.94,5.94,0,0,1-5.94,5.94H34.66l-1.53-4.21-.64-1.74-2.73-7.51-.89-2.44-6.26-17.2-4.32,1.57,12.6,34.61a2.92,2.92,0,0,0,2.74,1.92h27.1A10.94,10.94,0,0,0,71.67,60.73V45.4l-5,1.82Z"></path><path d="M10.94,66.67A5.94,5.94,0,0,1,5,60.73V34.66l4.07-1.48,1.8-.66,5.71-2.08h0l4.32-1.57,17.2-6.26-1.57-4.32L1.92,30.89A2.92,2.92,0,0,0,0,33.63v27.1A10.94,10.94,0,0,0,10.94,71.67H26.27l-1.82-5Z"></path><path d="M5,10.94A5.94,5.94,0,0,1,10.94,5H37L42,18.58l.85,2.32,6.26,17.2,4.31-1.57L53,35.47,40.78,1.92A2.93,2.93,0,0,0,38,0H10.94A10.94,10.94,0,0,0,0,10.94V26.27l5-1.82Z"></path></svg>